<?xml version="1.0" encoding="UTF-8" standalone="no"?>
<!DOCTYPE svg PUBLIC "-//W3C//DTD SVG 1.1//EN"
 "http://www.w3.org/Graphics/SVG/1.1/DTD/svg11.dtd">
<!-- Generated by graphviz version 2.47.3 (20210619.1520)
 -->
<!-- Title: dependencies Pages: 1 -->
<svg width="1757pt" height="247pt"
 viewBox="0.00 0.00 1757.00 246.80" xmlns="http://www.w3.org/2000/svg" xmlns:xlink="http://www.w3.org/1999/xlink">
<g id="graph0" class="graph" transform="scale(1 1) rotate(0) translate(4 242.8)">
<title>dependencies</title>
<polygon fill="white" stroke="transparent" points="-4,4 -4,-242.8 1753,-242.8 1753,4 -4,4"/>
<text text-anchor="middle" x="874.5" y="-8.2" font-family="sans-serif" font-size="14.00">dependencies</text>
<g id="clust1" class="cluster">
<title>cluster_AppModule</title>
<polygon fill="none" stroke="black" stroke-dasharray="1,5" points="8,-32.8 8,-230.8 1741,-230.8 1741,-32.8 8,-32.8"/>
</g>
<g id="clust13" class="cluster">
<title>cluster_AppModule_imports</title>
<polygon fill="none" stroke="black" points="1589,-40.8 1589,-92.8 1733,-92.8 1733,-40.8 1589,-40.8"/>
</g>
<g id="clust15" class="cluster">
<title>cluster_AppModule_bootstrap</title>
<polygon fill="none" stroke="black" points="808,-170.8 808,-222.8 932,-222.8 932,-170.8 808,-170.8"/>
</g>
<g id="clust16" class="cluster">
<title>cluster_AppModule_providers</title>
<polygon fill="none" stroke="black" points="1445,-40.8 1445,-92.8 1581,-92.8 1581,-40.8 1445,-40.8"/>
</g>
<g id="clust2" class="cluster">
<title>cluster_AppModule_declarations</title>
<polygon fill="none" stroke="black" points="16,-40.8 16,-92.8 1437,-92.8 1437,-40.8 16,-40.8"/>
</g>
<!-- AddTodoComponent -->
<g id="node1" class="node">
<title>AddTodoComponent</title>
<polygon fill="#ffffb3" stroke="black" points="1429.49,-84.8 1294.51,-84.8 1294.51,-48.8 1429.49,-48.8 1429.49,-84.8"/>
<text text-anchor="middle" x="1362" y="-62.6" font-family="Times,serif" font-size="14.00">AddTodoComponent</text>
</g>
<!-- AppModule -->
<g id="node11" class="node">
<title>AppModule</title>
<polygon fill="#8dd3c7" stroke="black" points="911.66,-149.8 908.66,-153.8 887.66,-153.8 884.66,-149.8 828.34,-149.8 828.34,-113.8 911.66,-113.8 911.66,-149.8"/>
<text text-anchor="middle" x="870" y="-127.6" font-family="Times,serif" font-size="14.00">AppModule</text>
</g>
<!-- AddTodoComponent&#45;&gt;AppModule -->
<g id="edge1" class="edge">
<title>AddTodoComponent&#45;&gt;AppModule</title>
<path fill="none" stroke="black" d="M1362,-84.91C1362,-104.14 1362,-131.8 1362,-131.8 1362,-131.8 921.95,-131.8 921.95,-131.8"/>
<polygon fill="black" stroke="black" points="921.95,-128.3 911.95,-131.8 921.95,-135.3 921.95,-128.3"/>
</g>
<!-- AddUserComponent -->
<g id="node2" class="node">
<title>AddUserComponent</title>
<polygon fill="#ffffb3" stroke="black" points="1276.87,-84.8 1145.13,-84.8 1145.13,-48.8 1276.87,-48.8 1276.87,-84.8"/>
<text text-anchor="middle" x="1211" y="-62.6" font-family="Times,serif" font-size="14.00">AddUserComponent</text>
</g>
<!-- AddUserComponent&#45;&gt;AppModule -->
<g id="edge2" class="edge">
<title>AddUserComponent&#45;&gt;AppModule</title>
<path fill="none" stroke="black" d="M1211,-84.82C1211,-102.17 1211,-125.8 1211,-125.8 1211,-125.8 921.81,-125.8 921.81,-125.8"/>
<polygon fill="black" stroke="black" points="921.81,-122.3 911.81,-125.8 921.81,-129.3 921.81,-122.3"/>
</g>
<!-- AppComponent -->
<g id="node3" class="node">
<title>AppComponent</title>
<polygon fill="#ffffb3" stroke="black" points="1126.94,-84.8 1021.06,-84.8 1021.06,-48.8 1126.94,-48.8 1126.94,-84.8"/>
<text text-anchor="middle" x="1074" y="-62.6" font-family="Times,serif" font-size="14.00">AppComponent</text>
</g>
<!-- AppComponent&#45;&gt;AppModule -->
<g id="edge3" class="edge">
<title>AppComponent&#45;&gt;AppModule</title>
<path fill="none" stroke="black" d="M1074,-85.04C1074,-100.37 1074,-119.8 1074,-119.8 1074,-119.8 921.77,-119.8 921.77,-119.8"/>
<polygon fill="black" stroke="black" points="921.77,-116.3 911.77,-119.8 921.77,-123.3 921.77,-116.3"/>
</g>
<!-- ContactComponent -->
<g id="node4" class="node">
<title>ContactComponent</title>
<polygon fill="#ffffb3" stroke="black" points="1003.38,-84.8 878.62,-84.8 878.62,-48.8 1003.38,-48.8 1003.38,-84.8"/>
<text text-anchor="middle" x="941" y="-62.6" font-family="Times,serif" font-size="14.00">ContactComponent</text>
</g>
<!-- ContactComponent&#45;&gt;AppModule -->
<g id="edge4" class="edge">
<title>ContactComponent&#45;&gt;AppModule</title>
<path fill="none" stroke="black" d="M895.19,-84.91C895.19,-84.91 895.19,-103.79 895.19,-103.79"/>
<polygon fill="black" stroke="black" points="891.69,-103.79 895.19,-113.79 898.69,-103.79 891.69,-103.79"/>
</g>
<!-- HeaderComponent -->
<g id="node5" class="node">
<title>HeaderComponent</title>
<polygon fill="#ffffb3" stroke="black" points="860.74,-84.8 739.26,-84.8 739.26,-48.8 860.74,-48.8 860.74,-84.8"/>
<text text-anchor="middle" x="800" y="-62.6" font-family="Times,serif" font-size="14.00">HeaderComponent</text>
</g>
<!-- HeaderComponent&#45;&gt;AppModule -->
<g id="edge5" class="edge">
<title>HeaderComponent&#45;&gt;AppModule</title>
<path fill="none" stroke="black" d="M844.52,-84.91C844.52,-84.91 844.52,-103.79 844.52,-103.79"/>
<polygon fill="black" stroke="black" points="841.02,-103.79 844.52,-113.79 848.02,-103.79 841.02,-103.79"/>
</g>
<!-- HomeComponent -->
<g id="node6" class="node">
<title>HomeComponent</title>
<polygon fill="#ffffb3" stroke="black" points="720.55,-84.8 605.45,-84.8 605.45,-48.8 720.55,-48.8 720.55,-84.8"/>
<text text-anchor="middle" x="663" y="-62.6" font-family="Times,serif" font-size="14.00">HomeComponent</text>
</g>
<!-- HomeComponent&#45;&gt;AppModule -->
<g id="edge6" class="edge">
<title>HomeComponent&#45;&gt;AppModule</title>
<path fill="none" stroke="black" d="M663,-85.04C663,-100.37 663,-119.8 663,-119.8 663,-119.8 818.11,-119.8 818.11,-119.8"/>
<polygon fill="black" stroke="black" points="818.11,-123.3 828.11,-119.8 818.11,-116.3 818.11,-123.3"/>
</g>
<!-- NotFoundComponent -->
<g id="node7" class="node">
<title>NotFoundComponent</title>
<polygon fill="#ffffb3" stroke="black" points="587.11,-84.8 448.89,-84.8 448.89,-48.8 587.11,-48.8 587.11,-84.8"/>
<text text-anchor="middle" x="518" y="-62.6" font-family="Times,serif" font-size="14.00">NotFoundComponent</text>
</g>
<!-- NotFoundComponent&#45;&gt;AppModule -->
<g id="edge7" class="edge">
<title>NotFoundComponent&#45;&gt;AppModule</title>
<path fill="none" stroke="black" d="M518,-84.82C518,-102.17 518,-125.8 518,-125.8 518,-125.8 818.24,-125.8 818.24,-125.8"/>
<polygon fill="black" stroke="black" points="818.24,-129.3 828.24,-125.8 818.24,-122.3 818.24,-129.3"/>
</g>
<!-- SingleTodoComponent -->
<g id="node8" class="node">
<title>SingleTodoComponent</title>
<polygon fill="#ffffb3" stroke="black" points="431.16,-84.8 284.84,-84.8 284.84,-48.8 431.16,-48.8 431.16,-84.8"/>
<text text-anchor="middle" x="358" y="-62.6" font-family="Times,serif" font-size="14.00">SingleTodoComponent</text>
</g>
<!-- SingleTodoComponent&#45;&gt;AppModule -->
<g id="edge8" class="edge">
<title>SingleTodoComponent&#45;&gt;AppModule</title>
<path fill="none" stroke="black" d="M358,-84.91C358,-104.14 358,-131.8 358,-131.8 358,-131.8 818.1,-131.8 818.1,-131.8"/>
<polygon fill="black" stroke="black" points="818.1,-135.3 828.1,-131.8 818.1,-128.3 818.1,-135.3"/>
</g>
<!-- TodoComponent -->
<g id="node9" class="node">
<title>TodoComponent</title>
<polygon fill="#ffffb3" stroke="black" points="266.39,-84.8 155.61,-84.8 155.61,-48.8 266.39,-48.8 266.39,-84.8"/>
<text text-anchor="middle" x="211" y="-62.6" font-family="Times,serif" font-size="14.00">TodoComponent</text>
</g>
<!-- TodoComponent&#45;&gt;AppModule -->
<g id="edge9" class="edge">
<title>TodoComponent&#45;&gt;AppModule</title>
<path fill="none" stroke="black" d="M211,-85.08C211,-106.12 211,-137.8 211,-137.8 211,-137.8 818.28,-137.8 818.28,-137.8"/>
<polygon fill="black" stroke="black" points="818.28,-141.3 828.28,-137.8 818.28,-134.3 818.28,-141.3"/>
</g>
<!-- UsersComponent -->
<g id="node10" class="node">
<title>UsersComponent</title>
<polygon fill="#ffffb3" stroke="black" points="137.7,-84.8 24.3,-84.8 24.3,-48.8 137.7,-48.8 137.7,-84.8"/>
<text text-anchor="middle" x="81" y="-62.6" font-family="Times,serif" font-size="14.00">UsersComponent</text>
</g>
<!-- UsersComponent&#45;&gt;AppModule -->
<g id="edge10" class="edge">
<title>UsersComponent&#45;&gt;AppModule</title>
<path fill="none" stroke="black" d="M81,-85.05C81,-107.82 81,-143.8 81,-143.8 81,-143.8 818.14,-143.8 818.14,-143.8"/>
<polygon fill="black" stroke="black" points="818.14,-147.3 828.14,-143.8 818.14,-140.3 818.14,-147.3"/>
</g>
<!-- AppComponent  -->
<g id="node13" class="node">
<title>AppComponent </title>
<polygon fill="#80b1d3" stroke="black" points="924.44,-214.8 815.56,-214.8 815.56,-178.8 924.44,-178.8 924.44,-214.8"/>
<text text-anchor="middle" x="870" y="-192.6" font-family="Times,serif" font-size="14.00">AppComponent </text>
</g>
<!-- AppModule&#45;&gt;AppComponent  -->
<g id="edge12" class="edge">
<title>AppModule&#45;&gt;AppComponent </title>
<path fill="none" stroke="black" stroke-dasharray="1,5" d="M870,-149.91C870,-149.91 870,-168.79 870,-168.79"/>
<polygon fill="black" stroke="black" points="866.5,-168.79 870,-178.79 873.5,-168.79 866.5,-168.79"/>
</g>
<!-- AppRoutingModule -->
<g id="node12" class="node">
<title>AppRoutingModule</title>
<polygon fill="#8dd3c7" stroke="black" points="1725.27,-84.8 1722.27,-88.8 1701.27,-88.8 1698.27,-84.8 1596.73,-84.8 1596.73,-48.8 1725.27,-48.8 1725.27,-84.8"/>
<text text-anchor="middle" x="1661" y="-62.6" font-family="Times,serif" font-size="14.00">AppRoutingModule</text>
</g>
<!-- AppRoutingModule&#45;&gt;AppModule -->
<g id="edge11" class="edge">
<title>AppRoutingModule&#45;&gt;AppModule</title>
<path fill="none" stroke="black" d="M1661,-85.05C1661,-107.82 1661,-143.8 1661,-143.8 1661,-143.8 921.69,-143.8 921.69,-143.8"/>
<polygon fill="black" stroke="black" points="921.69,-140.3 911.69,-143.8 921.69,-147.3 921.69,-140.3"/>
</g>
<!-- TodoService -->
<g id="node14" class="node">
<title>TodoService</title>
<ellipse fill="#fdb462" stroke="black" cx="1513" cy="-66.8" rx="60.25" ry="18"/>
<text text-anchor="middle" x="1513" y="-62.6" font-family="Times,serif" font-size="14.00">TodoService</text>
</g>
<!-- TodoService&#45;&gt;AppModule -->
<g id="edge13" class="edge">
<title>TodoService&#45;&gt;AppModule</title>
<path fill="none" stroke="black" d="M1513,-85.08C1513,-106.12 1513,-137.8 1513,-137.8 1513,-137.8 921.69,-137.8 921.69,-137.8"/>
<polygon fill="black" stroke="black" points="921.69,-134.3 911.69,-137.8 921.69,-141.3 921.69,-134.3"/>
</g>
</g>
</svg>
