<?xml version="1.0" encoding="UTF-8" standalone="no"?>
<!DOCTYPE svg PUBLIC "-//W3C//DTD SVG 1.1//EN"
 "http://www.w3.org/Graphics/SVG/1.1/DTD/svg11.dtd">
<!-- Generated by graphviz version 2.47.3 (20210619.1520)
 -->
<!-- Title: dependencies Pages: 1 -->
<svg width="1757pt" height="247pt"
 viewBox="0.00 0.00 1757.00 246.80" xmlns="http://www.w3.org/2000/svg" xmlns:xlink="http://www.w3.org/1999/xlink">
<g id="graph0" class="graph" transform="scale(1 1) rotate(0) translate(4 242.8)">
<title>dependencies</title>
<polygon fill="white" stroke="transparent" points="-4,4 -4,-242.8 1753,-242.8 1753,4 -4,4"/>
<text text-anchor="middle" x="874.5" y="-8.2" font-family="sans-serif" font-size="14.00">dependencies</text>
<g id="clust1" class="cluster">
<title>cluster_AppModule</title>
<polygon fill="none" stroke="black" stroke-dasharray="1,5" points="8,-32.8 8,-230.8 1741,-230.8 1741,-32.8 8,-32.8"/>
</g>
<g id="clust2" class="cluster">
<title>cluster_AppModule_declarations</title>
<polygon fill="none" stroke="black" points="312,-40.8 312,-92.8 1733,-92.8 1733,-40.8 312,-40.8"/>
</g>
<g id="clust13" class="cluster">
<title>cluster_AppModule_imports</title>
<polygon fill="none" stroke="black" points="160,-40.8 160,-92.8 304,-92.8 304,-40.8 160,-40.8"/>
</g>
<g id="clust15" class="cluster">
<title>cluster_AppModule_bootstrap</title>
<polygon fill="none" stroke="black" points="824,-170.8 824,-222.8 948,-222.8 948,-170.8 824,-170.8"/>
</g>
<g id="clust16" class="cluster">
<title>cluster_AppModule_providers</title>
<polygon fill="none" stroke="black" points="16,-40.8 16,-92.8 152,-92.8 152,-40.8 16,-40.8"/>
</g>
<!-- AddTodoComponent -->
<g id="node1" class="node">
<title>AddTodoComponent</title>
<polygon fill="#ffffb3" stroke="black" points="1725.49,-84.8 1590.51,-84.8 1590.51,-48.8 1725.49,-48.8 1725.49,-84.8"/>
<text text-anchor="middle" x="1658" y="-62.6" font-family="Times,serif" font-size="14.00">AddTodoComponent</text>
</g>
<!-- AppModule -->
<g id="node11" class="node">
<title>AppModule</title>
<polygon fill="#8dd3c7" stroke="black" points="927.66,-149.8 924.66,-153.8 903.66,-153.8 900.66,-149.8 844.34,-149.8 844.34,-113.8 927.66,-113.8 927.66,-149.8"/>
<text text-anchor="middle" x="886" y="-127.6" font-family="Times,serif" font-size="14.00">AppModule</text>
</g>
<!-- AddTodoComponent&#45;&gt;AppModule -->
<g id="edge1" class="edge">
<title>AddTodoComponent&#45;&gt;AppModule</title>
<path fill="none" stroke="black" d="M1658,-85.05C1658,-107.82 1658,-143.8 1658,-143.8 1658,-143.8 937.78,-143.8 937.78,-143.8"/>
<polygon fill="black" stroke="black" points="937.78,-140.3 927.78,-143.8 937.78,-147.3 937.78,-140.3"/>
</g>
<!-- AddUserComponent -->
<g id="node2" class="node">
<title>AddUserComponent</title>
<polygon fill="#ffffb3" stroke="black" points="1572.87,-84.8 1441.13,-84.8 1441.13,-48.8 1572.87,-48.8 1572.87,-84.8"/>
<text text-anchor="middle" x="1507" y="-62.6" font-family="Times,serif" font-size="14.00">AddUserComponent</text>
</g>
<!-- AddUserComponent&#45;&gt;AppModule -->
<g id="edge2" class="edge">
<title>AddUserComponent&#45;&gt;AppModule</title>
<path fill="none" stroke="black" d="M1507,-85.08C1507,-106.12 1507,-137.8 1507,-137.8 1507,-137.8 937.71,-137.8 937.71,-137.8"/>
<polygon fill="black" stroke="black" points="937.71,-134.3 927.71,-137.8 937.71,-141.3 937.71,-134.3"/>
</g>
<!-- AppComponent -->
<g id="node3" class="node">
<title>AppComponent</title>
<polygon fill="#ffffb3" stroke="black" points="1422.94,-84.8 1317.06,-84.8 1317.06,-48.8 1422.94,-48.8 1422.94,-84.8"/>
<text text-anchor="middle" x="1370" y="-62.6" font-family="Times,serif" font-size="14.00">AppComponent</text>
</g>
<!-- AppComponent&#45;&gt;AppModule -->
<g id="edge3" class="edge">
<title>AppComponent&#45;&gt;AppModule</title>
<path fill="none" stroke="black" d="M1370,-84.91C1370,-104.14 1370,-131.8 1370,-131.8 1370,-131.8 937.68,-131.8 937.68,-131.8"/>
<polygon fill="black" stroke="black" points="937.68,-128.3 927.68,-131.8 937.68,-135.3 937.68,-128.3"/>
</g>
<!-- ContactComponent -->
<g id="node4" class="node">
<title>ContactComponent</title>
<polygon fill="#ffffb3" stroke="black" points="1299.38,-84.8 1174.62,-84.8 1174.62,-48.8 1299.38,-48.8 1299.38,-84.8"/>
<text text-anchor="middle" x="1237" y="-62.6" font-family="Times,serif" font-size="14.00">ContactComponent</text>
</g>
<!-- ContactComponent&#45;&gt;AppModule -->
<g id="edge4" class="edge">
<title>ContactComponent&#45;&gt;AppModule</title>
<path fill="none" stroke="black" d="M1237,-84.82C1237,-102.17 1237,-125.8 1237,-125.8 1237,-125.8 937.99,-125.8 937.99,-125.8"/>
<polygon fill="black" stroke="black" points="937.99,-122.3 927.99,-125.8 937.99,-129.3 937.99,-122.3"/>
</g>
<!-- HeaderComponent -->
<g id="node5" class="node">
<title>HeaderComponent</title>
<polygon fill="#ffffb3" stroke="black" points="1156.74,-84.8 1035.26,-84.8 1035.26,-48.8 1156.74,-48.8 1156.74,-84.8"/>
<text text-anchor="middle" x="1096" y="-62.6" font-family="Times,serif" font-size="14.00">HeaderComponent</text>
</g>
<!-- HeaderComponent&#45;&gt;AppModule -->
<g id="edge5" class="edge">
<title>HeaderComponent&#45;&gt;AppModule</title>
<path fill="none" stroke="black" d="M1096,-85.04C1096,-100.37 1096,-119.8 1096,-119.8 1096,-119.8 937.74,-119.8 937.74,-119.8"/>
<polygon fill="black" stroke="black" points="937.74,-116.3 927.74,-119.8 937.74,-123.3 937.74,-116.3"/>
</g>
<!-- HomeComponent -->
<g id="node6" class="node">
<title>HomeComponent</title>
<polygon fill="#ffffb3" stroke="black" points="1016.55,-84.8 901.45,-84.8 901.45,-48.8 1016.55,-48.8 1016.55,-84.8"/>
<text text-anchor="middle" x="959" y="-62.6" font-family="Times,serif" font-size="14.00">HomeComponent</text>
</g>
<!-- HomeComponent&#45;&gt;AppModule -->
<g id="edge6" class="edge">
<title>HomeComponent&#45;&gt;AppModule</title>
<path fill="none" stroke="black" d="M914.53,-84.91C914.53,-84.91 914.53,-103.79 914.53,-103.79"/>
<polygon fill="black" stroke="black" points="911.03,-103.79 914.53,-113.79 918.03,-103.79 911.03,-103.79"/>
</g>
<!-- NotFoundComponent -->
<g id="node7" class="node">
<title>NotFoundComponent</title>
<polygon fill="#ffffb3" stroke="black" points="883.11,-84.8 744.89,-84.8 744.89,-48.8 883.11,-48.8 883.11,-84.8"/>
<text text-anchor="middle" x="814" y="-62.6" font-family="Times,serif" font-size="14.00">NotFoundComponent</text>
</g>
<!-- NotFoundComponent&#45;&gt;AppModule -->
<g id="edge7" class="edge">
<title>NotFoundComponent&#45;&gt;AppModule</title>
<path fill="none" stroke="black" d="M863.61,-84.91C863.61,-84.91 863.61,-103.79 863.61,-103.79"/>
<polygon fill="black" stroke="black" points="860.11,-103.79 863.61,-113.79 867.11,-103.79 860.11,-103.79"/>
</g>
<!-- SingleTodoComponent -->
<g id="node8" class="node">
<title>SingleTodoComponent</title>
<polygon fill="#ffffb3" stroke="black" points="727.16,-84.8 580.84,-84.8 580.84,-48.8 727.16,-48.8 727.16,-84.8"/>
<text text-anchor="middle" x="654" y="-62.6" font-family="Times,serif" font-size="14.00">SingleTodoComponent</text>
</g>
<!-- SingleTodoComponent&#45;&gt;AppModule -->
<g id="edge8" class="edge">
<title>SingleTodoComponent&#45;&gt;AppModule</title>
<path fill="none" stroke="black" d="M654,-85.04C654,-100.37 654,-119.8 654,-119.8 654,-119.8 834.26,-119.8 834.26,-119.8"/>
<polygon fill="black" stroke="black" points="834.26,-123.3 844.26,-119.8 834.26,-116.3 834.26,-123.3"/>
</g>
<!-- TodoComponent -->
<g id="node9" class="node">
<title>TodoComponent</title>
<polygon fill="#ffffb3" stroke="black" points="562.39,-84.8 451.61,-84.8 451.61,-48.8 562.39,-48.8 562.39,-84.8"/>
<text text-anchor="middle" x="507" y="-62.6" font-family="Times,serif" font-size="14.00">TodoComponent</text>
</g>
<!-- TodoComponent&#45;&gt;AppModule -->
<g id="edge9" class="edge">
<title>TodoComponent&#45;&gt;AppModule</title>
<path fill="none" stroke="black" d="M507,-84.82C507,-102.17 507,-125.8 507,-125.8 507,-125.8 833.99,-125.8 833.99,-125.8"/>
<polygon fill="black" stroke="black" points="833.99,-129.3 843.99,-125.8 833.99,-122.3 833.99,-129.3"/>
</g>
<!-- UsersComponent -->
<g id="node10" class="node">
<title>UsersComponent</title>
<polygon fill="#ffffb3" stroke="black" points="433.7,-84.8 320.3,-84.8 320.3,-48.8 433.7,-48.8 433.7,-84.8"/>
<text text-anchor="middle" x="377" y="-62.6" font-family="Times,serif" font-size="14.00">UsersComponent</text>
</g>
<!-- UsersComponent&#45;&gt;AppModule -->
<g id="edge10" class="edge">
<title>UsersComponent&#45;&gt;AppModule</title>
<path fill="none" stroke="black" d="M377,-84.91C377,-104.14 377,-131.8 377,-131.8 377,-131.8 833.91,-131.8 833.91,-131.8"/>
<polygon fill="black" stroke="black" points="833.91,-135.3 843.91,-131.8 833.91,-128.3 833.91,-135.3"/>
</g>
<!-- AppComponent  -->
<g id="node13" class="node">
<title>AppComponent </title>
<polygon fill="#80b1d3" stroke="black" points="940.44,-214.8 831.56,-214.8 831.56,-178.8 940.44,-178.8 940.44,-214.8"/>
<text text-anchor="middle" x="886" y="-192.6" font-family="Times,serif" font-size="14.00">AppComponent </text>
</g>
<!-- AppModule&#45;&gt;AppComponent  -->
<g id="edge12" class="edge">
<title>AppModule&#45;&gt;AppComponent </title>
<path fill="none" stroke="black" stroke-dasharray="1,5" d="M886,-149.91C886,-149.91 886,-168.79 886,-168.79"/>
<polygon fill="black" stroke="black" points="882.5,-168.79 886,-178.79 889.5,-168.79 882.5,-168.79"/>
</g>
<!-- AppRoutingModule -->
<g id="node12" class="node">
<title>AppRoutingModule</title>
<polygon fill="#8dd3c7" stroke="black" points="296.27,-84.8 293.27,-88.8 272.27,-88.8 269.27,-84.8 167.73,-84.8 167.73,-48.8 296.27,-48.8 296.27,-84.8"/>
<text text-anchor="middle" x="232" y="-62.6" font-family="Times,serif" font-size="14.00">AppRoutingModule</text>
</g>
<!-- AppRoutingModule&#45;&gt;AppModule -->
<g id="edge11" class="edge">
<title>AppRoutingModule&#45;&gt;AppModule</title>
<path fill="none" stroke="black" d="M232,-85.08C232,-106.12 232,-137.8 232,-137.8 232,-137.8 834.09,-137.8 834.09,-137.8"/>
<polygon fill="black" stroke="black" points="834.09,-141.3 844.09,-137.8 834.09,-134.3 834.09,-141.3"/>
</g>
<!-- TodoService -->
<g id="node14" class="node">
<title>TodoService</title>
<ellipse fill="#fdb462" stroke="black" cx="84" cy="-66.8" rx="60.25" ry="18"/>
<text text-anchor="middle" x="84" y="-62.6" font-family="Times,serif" font-size="14.00">TodoService</text>
</g>
<!-- TodoService&#45;&gt;AppModule -->
<g id="edge13" class="edge">
<title>TodoService&#45;&gt;AppModule</title>
<path fill="none" stroke="black" d="M84,-85.05C84,-107.82 84,-143.8 84,-143.8 84,-143.8 834.29,-143.8 834.29,-143.8"/>
<polygon fill="black" stroke="black" points="834.29,-147.3 844.29,-143.8 834.29,-140.3 834.29,-147.3"/>
</g>
</g>
</svg>
